<?xml version="1.0" encoding="UTF-8" standalone="no"?>
<!-- Created with Inkscape (http://www.inkscape.org/) -->

<svg
   xmlns:dc="http://purl.org/dc/elements/1.1/"
   xmlns:cc="http://creativecommons.org/ns#"
   xmlns:rdf="http://www.w3.org/1999/02/22-rdf-syntax-ns#"
   xmlns:svg="http://www.w3.org/2000/svg"
   xmlns="http://www.w3.org/2000/svg"
   xmlns:xlink="http://www.w3.org/1999/xlink"
   xmlns:sodipodi="http://sodipodi.sourceforge.net/DTD/sodipodi-0.dtd"
   xmlns:inkscape="http://www.inkscape.org/namespaces/inkscape"
   width="512"
   height="476"
   id="svg3336"
   version="1.1"
   inkscape:version="0.48.4 r9939"
   sodipodi:docname="apps-scope-icon.svg"
   inkscape:export-filename="app_shape02.png"
   inkscape:export-xdpi="180"
   inkscape:export-ydpi="180"
   style="enable-background:new">
  <defs
     id="defs3338">
    <filter
       style="color-interpolation-filters:sRGB"
       inkscape:label="Inner Shadow"
       id="filter4245">
      <feFlood
         flood-opacity="0.40000000000000002"
         flood-color="rgb(0,0,0)"
         result="flood"
         id="feFlood4247" />
      <feComposite
         in="flood"
         in2="SourceGraphic"
         operator="out"
         result="composite1"
         id="feComposite4249" />
      <feGaussianBlur
         in="composite1"
         stdDeviation="6"
         result="blur"
         id="feGaussianBlur4251" />
      <feOffset
         dx="0"
         dy="2"
         result="offset"
         id="feOffset4253" />
      <feComposite
         in="offset"
         in2="SourceGraphic"
         operator="atop"
         result="composite2"
         id="feComposite4255" />
    </filter>
    <filter
       style="color-interpolation-filters:sRGB"
       inkscape:label="Drop Shadow"
       id="filter4711">
      <feFlood
         flood-opacity="0.501961"
         flood-color="rgb(0,0,0)"
         result="flood"
         id="feFlood4713" />
      <feComposite
         in="flood"
         in2="SourceGraphic"
         operator="in"
         result="composite1"
         id="feComposite4715" />
      <feGaussianBlur
         in="composite1"
         stdDeviation="6"
         result="blur"
         id="feGaussianBlur4717" />
      <feOffset
         dx="0"
         dy="4"
         result="offset"
         id="feOffset4719" />
      <feComposite
         in="SourceGraphic"
         in2="offset"
         operator="over"
         result="composite2"
         id="feComposite4721" />
    </filter>
    <filter
       style="color-interpolation-filters:sRGB"
       inkscape:label="Colorize"
       id="filter4260">
      <feComposite
         in2="SourceGraphic"
         operator="arithmetic"
         k1="0"
         k2="1"
         result="composite1"
         id="feComposite4262"
         k3="0"
         k4="0" />
      <feColorMatrix
         in="composite1"
         values="0"
         type="saturate"
         result="colormatrix1"
         id="feColorMatrix4264" />
      <feFlood
         flood-opacity="1"
         flood-color="rgb(158,67,0)"
         result="flood1"
         id="feFlood4266" />
      <feBlend
         in="flood1"
         in2="colormatrix1"
         mode="multiply"
         result="blend1"
         id="feBlend4268" />
      <feBlend
         in2="blend1"
         mode="screen"
         result="blend2"
         id="feBlend4270" />
      <feColorMatrix
         in="blend2"
         values="1"
         type="saturate"
         result="colormatrix2"
         id="feColorMatrix4272" />
      <feComposite
         in="colormatrix2"
         in2="SourceGraphic"
         operator="in"
         result="composite2"
         id="feComposite4274" />
    </filter>
    <linearGradient
       inkscape:collect="always"
       id="linearGradient4230-9">
      <stop
         style="stop-color:#f6f2ec;stop-opacity:1"
         offset="0"
         id="stop4151" />
      <stop
         style="stop-color:#e1d4c0;stop-opacity:1"
         offset="1"
         id="stop4153" />
    </linearGradient>
    <clipPath
       clipPathUnits="userSpaceOnUse"
       id="clipPath4241">
      <path
         sodipodi:nodetypes="sssssssss"
         inkscape:connector-curvature="0"
         id="path4243"
         d="m 166.05406,17.99997 179.89189,0 c 145.29729,0 166.05406,20.73726 166.05406,165.89904 l 0,144.20253 c 0,145.16118 -20.75677,165.89848 -166.05406,165.89848 l -179.89189,0 C 20.756757,494.00002 0,473.26272 0,328.10154 L 0,183.89901 C 0,38.73723 20.756757,17.99997 166.05406,17.99997 Z"
         style="fill:#0000ff;fill-opacity:0.08118083;stroke:#0000ff;display:inline" />
    </clipPath>
    <clipPath
       clipPathUnits="userSpaceOnUse"
       id="clipPath4510">
      <path
         style="fill:#0000ff;fill-opacity:0.08118083;stroke:#0000ff;display:inline"
         d="m 463.30663,-109.56117 179.89189,0 c 145.29729,0 166.05406,20.73726 166.05406,165.89904 l 0,144.20253 c 0,145.16118 -20.75677,165.89848 -166.05406,165.89848 l -179.89189,0 c -145.2973,0 -166.05406,-20.7373 -166.05406,-165.89848 l 0,-144.20253 c 0,-145.16178 20.75676,-165.89904 166.05406,-165.89904 z"
         id="path4512"
         inkscape:connector-curvature="0"
         sodipodi:nodetypes="sssssssss" />
    </clipPath>
    <clipPath
       clipPathUnits="userSpaceOnUse"
       id="clipPath4707">
      <path
         sodipodi:nodetypes="sssssssss"
         inkscape:connector-curvature="0"
         id="path4709"
         d="m 166.05406,17.99997 179.89189,0 c 145.29729,0 166.05406,20.73726 166.05406,165.89904 l 0,144.20253 c 0,145.16118 -20.75677,165.89848 -166.05406,165.89848 l -179.89189,0 C 20.75676,494.00002 0,473.26272 0,328.10154 L 0,183.89901 C 0,38.73723 20.75676,17.99997 166.05406,17.99997 Z"
         style="fill:#ff00ff;fill-opacity:0.50479234;stroke:none;display:inline" />
    </clipPath>
    <clipPath
       clipPathUnits="userSpaceOnUse"
       id="clipPath4170">
      <path
         style="fill:#ffffff;fill-opacity:1;stroke:none;display:inline"
         d="m 166.05406,17.99997 179.89189,0 c 145.29729,0 166.05406,20.73726 166.05406,165.89904 l 0,144.20253 c 0,145.16118 -20.75677,165.89848 -166.05406,165.89848 l -179.89189,0 C 20.75676,494.00002 0,473.26272 0,328.10154 L 0,183.89901 C 0,38.73723 20.75676,17.99997 166.05406,17.99997 Z"
         id="path4172"
         inkscape:connector-curvature="0"
         sodipodi:nodetypes="sssssssss" />
    </clipPath>
    <linearGradient
       inkscape:collect="always"
       xlink:href="#linearGradient7537"
       id="linearGradient3223"
       gradientUnits="userSpaceOnUse"
       gradientTransform="matrix(5.3329426,0,0,-5.4179322,0.01904181,5682.273)"
       x1="44.236801"
       y1="1046.2661"
       x2="44.236801"
       y2="960.21375" />
    <linearGradient
       id="linearGradient7537">
      <stop
         style="stop-color:#f6814e;stop-opacity:0.99607843"
         offset="0"
         id="stop7539" />
      <stop
         id="stop4265"
         offset="0.49599037"
         style="stop-color:#e9354a;stop-opacity:0.99607843" />
      <stop
         style="stop-color:#be245a;stop-opacity:1"
         offset="1"
         id="stop7541" />
    </linearGradient>
    <clipPath
       clipPathUnits="userSpaceOnUse"
       id="clipPath4967">
      <path
         style="opacity:0.4;color:#000000;fill:#ff00ff;fill-opacity:1;fill-rule:nonzero;stroke:none;stroke-width:1;marker:none;visibility:visible;display:inline;overflow:visible;enable-background:accumulate"
         d="M 119.86447,193.96008 236.17789,151.15047 339.16724,166.36466 392.09848,328.03894 392.283,494 119.86447,494 Z"
         id="path4969"
         inkscape:connector-curvature="0"
         sodipodi:nodetypes="ccccccc" />
    </clipPath>
    <clipPath
       clipPathUnits="userSpaceOnUse"
       id="clipPath4126">
      <path
         style="opacity:0.57099998;color:#000000;fill:#ff00ff;fill-opacity:1;fill-rule:nonzero;stroke:none;stroke-width:1;marker:none;visibility:visible;display:inline;overflow:visible;enable-background:accumulate"
         d="m 160.28233,309.99918 122.94966,60 0,124.0008 -122.94966,0 z"
         id="path4128"
         inkscape:connector-curvature="0"
         sodipodi:nodetypes="ccccc" />
    </clipPath>
    <clipPath
       clipPathUnits="userSpaceOnUse"
       id="clipPath4235">
      <path
         style="opacity:0.4;color:#000000;fill:#ff00ff;fill-opacity:1;fill-rule:nonzero;stroke:none;stroke-width:1;marker:none;visibility:visible;display:inline;overflow:visible;enable-background:accumulate"
         d="m 112,274 46.7049,63.80269 47.91779,-18.12276 71.9684,12.14543 39.48326,12.85956 L 384,274 l 0,220 -272,0 z"
         id="path4237"
         inkscape:connector-curvature="0"
         sodipodi:nodetypes="ccccccccc" />
    </clipPath>
    <clipPath
       clipPathUnits="userSpaceOnUse"
       id="clipPath4251">
      <path
         style="opacity:0.3;color:#000000;fill:#ff00ff;fill-opacity:1;fill-rule:nonzero;stroke:none;stroke-width:1;marker:none;visibility:visible;display:inline;overflow:visible;enable-background:accumulate"
         d="m 151.09711,359.41623 32.64849,-39.40714 101.92348,7.11528 31.70175,32.29186 0,134.58377 -166.27372,0 z"
         id="path4253"
         inkscape:connector-curvature="0"
         sodipodi:nodetypes="ccccccc" />
    </clipPath>
    <clipPath
       clipPathUnits="userSpaceOnUse"
       id="clipPath4277">
      <path
         style="opacity:0.58999999;color:#000000;fill:#ff00ff;fill-opacity:1;fill-rule:nonzero;stroke:none;stroke-width:1;marker:none;visibility:visible;display:inline;overflow:visible;enable-background:accumulate"
         d="m 190.21352,387.1221 82.28733,10.67687 0,96.20103 -82.28733,0 z"
         id="path4279"
         inkscape:connector-curvature="0"
         sodipodi:nodetypes="ccccc" />
    </clipPath>
    <clipPath
       clipPathUnits="userSpaceOnUse"
       id="clipPath4196">
      <path
         style="opacity:0.3;color:#000000;fill:#ff00ff;fill-opacity:1;fill-rule:nonzero;stroke:none;stroke-width:1;marker:none;visibility:visible;display:inline;overflow:visible;enable-background:accumulate"
         d="m 638.21375,486.59579 63.81095,88.00549 153.12554,3.39578 71.06351,-91.40127 0,238 -288,0 z"
         id="path4198"
         inkscape:connector-curvature="0"
         sodipodi:nodetypes="ccccccc" />
    </clipPath>
    <clipPath
       clipPathUnits="userSpaceOnUse"
       id="clipPath4215">
      <rect
         style="opacity:0.3;color:#000000;fill:#ff00ff;fill-opacity:1;fill-rule:nonzero;stroke:none;stroke-width:1;marker:none;visibility:visible;display:inline;overflow:visible;enable-background:accumulate"
         id="rect4217"
         width="146.32043"
         height="150.33058"
         x="702.04108"
         y="574.2652" />
    </clipPath>
    <clipPath
       clipPathUnits="userSpaceOnUse"
       id="clipPath4171">
      <path
         id="path4173"
         d="m 233.75,180.15625 c -23.89408,0 -47.55791,3.41205 -70.34375,10.125 -6.26939,1.84752 -9.84555,8.44936 -8,14.71875 1.84883,6.26874 8.41092,9.84751 14.6875,8 20.61186,-6.07313 42.02773,-9.15625 63.65625,-9.15625 40.03239,0 79.37086,10.66957 113.71875,30.84375 1.8835,1.10629 3.93413,1.625 5.96875,1.625 4.05944,0 8.01272,-2.05858 10.21875,-5.8125 3.31035,-5.63545 1.44795,-12.9084 -4.1875,-16.21875 -37.98009,-22.30826 -81.47515,-34.125 -125.71875,-34.125 z m 0,49.0625 c -20.84803,0 -41.3983,3.20428 -61.125,9.53125 -5.60012,1.79779 -8.70274,7.80548 -6.90625,13.40625 1.79779,5.60144 7.80481,8.66887 13.40625,6.875 17.62011,-5.65312 35.98758,-8.5 54.625,-8.5 33.54514,0 66.26798,9.358 94.59375,27.0625 1.75528,1.09778 3.6957,1.625 5.625,1.625 3.55111,0 7.04161,-1.79941 9.0625,-5.03125 3.118,-4.98778 1.58348,-11.53889 -3.40625,-14.65625 -31.71594,-19.82418 -68.33454,-30.3125 -105.875,-30.3125 z m 0,48.53125 c -17.90666,0 -35.42422,3.0797 -52.09375,9.1875 -4.91058,1.79845 -7.42345,7.24567 -5.625,12.15625 1.79976,4.90796 7.21507,7.45535 12.125,5.65625 14.57602,-5.33975 29.91733,-8.0625 45.59375,-8.0625 27.10238,0 53.1999,8.13992 75.4375,23.5625 1.64667,1.13835 3.5144,1.6875 5.375,1.6875 3.00026,0 5.94289,-1.4116 7.78125,-4.0625 2.97736,-4.29692 1.92323,-10.20818 -2.375,-13.1875 C 294.54968,287.05954 264.72667,277.75 233.75,277.75 Z"
         style="fill:#ff0000"
         inkscape:connector-curvature="0" />
    </clipPath>
    <clipPath
       clipPathUnits="userSpaceOnUse"
       id="clipPath4149">
      <rect
         y="340.15625"
         x="147.149"
         height="155.84375"
         width="217.28188"
         id="rect4151"
         style="opacity:0.5;color:#000000;fill:#ff00ff;fill-opacity:1;fill-rule:nonzero;stroke:none;stroke-width:8;marker:none;visibility:visible;display:inline;overflow:visible;enable-background:accumulate" />
    </clipPath>
    <clipPath
       clipPathUnits="userSpaceOnUse"
       id="clipPath4240">
      <path
         style="opacity:0.3;color:#000000;fill:#ff00ff;fill-opacity:1;fill-rule:nonzero;stroke:none;stroke-width:40;marker:none;visibility:visible;display:inline;overflow:visible;enable-background:accumulate"
         d="m 123.20169,213.81313 131.91243,-39.95605 130.18771,40.41597 0,258.27583 -261.29528,0 z"
         id="path4242"
         inkscape:connector-curvature="0" />
    </clipPath>
    <linearGradient
       inkscape:collect="always"
       xlink:href="#linearGradient4142"
       id="linearGradient4148"
       x1="221.78072"
       y1="353.00031"
       x2="221.78072"
       y2="494"
       gradientUnits="userSpaceOnUse" />
    <linearGradient
       inkscape:collect="always"
       id="linearGradient4142">
      <stop
         style="stop-color:#000000;stop-opacity:1;"
         offset="0"
         id="stop4144" />
      <stop
         id="stop4158"
         offset="0.75"
         style="stop-color:#000000;stop-opacity:0" />
      <stop
         style="stop-color:#000000;stop-opacity:0"
         offset="1"
         id="stop4146" />
    </linearGradient>
    <linearGradient
       inkscape:collect="always"
       xlink:href="#linearGradient4230-9"
       id="linearGradient4161-8"
       x1="238.52586"
       y1="209.36218"
       x2="238.52586"
       y2="149.36218"
       gradientUnits="userSpaceOnUse"
       gradientTransform="matrix(3.3777778,0,0,3.3777778,-136.53334,-370.1123)" />
    <linearGradient
       id="linearGradient7537-6">
      <stop
         style="stop-color:#73c1da;stop-opacity:1"
         offset="0"
         id="stop7539-5" />
      <stop
         style="stop-color:#3aa3c6;stop-opacity:1"
         offset="1"
         id="stop7541-5" />
    </linearGradient>
    <linearGradient
       id="linearGradient7537-2">
      <stop
         style="stop-color:#73c1da;stop-opacity:1"
         offset="0"
         id="stop7539-7" />
      <stop
         style="stop-color:#3aa3c6;stop-opacity:1"
         offset="1"
         id="stop7541-6" />
    </linearGradient>
    <clipPath
       clipPathUnits="userSpaceOnUse"
       id="clipPath4135">
      <rect
         y="179.92949"
         x="389.53821"
         height="302.44305"
         width="116.61196"
         id="rect4137"
         style="opacity:0.3;color:#000000;fill:#ff00ff;fill-opacity:1;fill-rule:nonzero;stroke:none;stroke-width:4;marker:none;visibility:visible;display:inline;overflow:visible;enable-background:accumulate" />
    </clipPath>
    <filter
       style="color-interpolation-filters:sRGB"
       inkscape:label="Colorize"
       id="filter4154">
      <feComposite
         in2="SourceGraphic"
         operator="arithmetic"
         k1="0"
         k2="1"
         result="composite1"
         id="feComposite4156"
         k3="0"
         k4="0" />
      <feColorMatrix
         in="composite1"
         values="0"
         type="saturate"
         result="colormatrix1"
         id="feColorMatrix4158" />
      <feFlood
         flood-opacity="1"
         flood-color="rgb(119,50,131)"
         result="flood1"
         id="feFlood4160" />
      <feBlend
         in="flood1"
         in2="colormatrix1"
         mode="multiply"
         result="blend1"
         id="feBlend4162" />
      <feBlend
         in2="blend1"
         mode="screen"
         result="blend2"
         id="feBlend4164" />
      <feColorMatrix
         in="blend2"
         values="1"
         type="saturate"
         result="colormatrix2"
         id="feColorMatrix4166" />
      <feComposite
         in="colormatrix2"
         in2="SourceGraphic"
         operator="in"
         result="composite2"
         id="feComposite4168" />
    </filter>
  </defs>
  <sodipodi:namedview
     id="base"
     pagecolor="#333333"
     bordercolor="#666666"
     borderopacity="1.0"
     inkscape:pageopacity="0"
     inkscape:pageshadow="2"
     inkscape:zoom="1.66893"
     inkscape:cx="78.128889"
     inkscape:cy="218.97283"
     inkscape:document-units="px"
     inkscape:current-layer="layer4"
     showgrid="false"
     inkscape:window-width="2495"
     inkscape:window-height="1416"
     inkscape:window-x="65"
     inkscape:window-y="24"
     inkscape:window-maximized="1"
     inkscape:snap-page="true"
     inkscape:showpageshadow="false"
     showborder="true"
     inkscape:snap-bbox="true"
     inkscape:bbox-paths="true"
     inkscape:bbox-nodes="true"
     inkscape:snap-bbox-edge-midpoints="true"
     inkscape:snap-bbox-midpoints="true"
     inkscape:object-paths="true"
     inkscape:object-nodes="true"
     inkscape:snap-intersection-paths="true"
     inkscape:snap-smooth-nodes="true"
     inkscape:snap-midpoints="true"
     inkscape:snap-object-midpoints="true"
     inkscape:snap-center="true"
     showguides="true"
     inkscape:guide-bbox="true"
     inkscape:snap-grids="true"
     fit-margin-top="0"
     fit-margin-left="0"
     fit-margin-right="0.4"
     fit-margin-bottom="0"
     inkscape:snap-global="true"
     inkscape:snap-others="true">
    <inkscape:grid
       type="xygrid"
       id="grid811"
       originx="0px"
       originy="-1.999997px"
       visible="true"
       enabled="true" />
    <sodipodi:guide
       orientation="1,0"
       position="104,158"
       id="guide819" />
    <sodipodi:guide
       orientation="1,0"
       position="120,142"
       id="guide821" />
    <sodipodi:guide
       orientation="1,0"
       position="392,126"
       id="guide823" />
    <sodipodi:guide
       orientation="1,0"
       position="408,126"
       id="guide825" />
    <sodipodi:guide
       orientation="0,1"
       position="176,102"
       id="guide831" />
    <sodipodi:guide
       orientation="0,1"
       position="216,86"
       id="guide833" />
    <inkscape:grid
       type="axonomgrid"
       id="grid835"
       units="px"
       empspacing="60"
       gridanglex="42.9"
       gridanglez="42.9"
       spacingy="3.522px"
       enabled="false"
       originx="0px"
       originy="3e-06px" />
    <sodipodi:guide
       orientation="0,1"
       position="160,118"
       id="guide4128" />
    <sodipodi:guide
       orientation="1,0"
       position="136,78.000003"
       id="guide4130" />
    <sodipodi:guide
       orientation="1,0"
       position="376,118"
       id="guide4134" />
  </sodipodi:namedview>
  <metadata
     id="metadata3341">
    <rdf:RDF>
      <cc:Work
         rdf:about="">
        <dc:format>image/svg+xml</dc:format>
        <dc:type
           rdf:resource="http://purl.org/dc/dcmitype/StillImage" />
        <dc:title />
      </cc:Work>
    </rdf:RDF>
  </metadata>
  <g
     inkscape:groupmode="layer"
     id="layer3"
     inkscape:label="Background"
     transform="translate(0,-18)"
     sodipodi:insensitive="true"
     style="display:none">
    <rect
       style="color:#000000;fill:#ea3f4b;fill-opacity:0.99607843;fill-rule:nonzero;stroke:none;stroke-width:1;marker:none;visibility:visible;display:inline;overflow:visible;enable-background:accumulate"
       id="rect4158"
       width="512"
       height="476"
       x="0"
       y="18" />
  </g>
  <g
     inkscape:groupmode="layer"
     id="layer4"
     inkscape:label="Pictogram"
     transform="translate(0,-18)"
     style="display:inline">
    <path
       style="font-size:12.0041132px;font-style:normal;font-variant:normal;font-weight:500;font-stretch:normal;text-align:start;line-height:125%;letter-spacing:0px;word-spacing:0px;writing-mode:lr-tb;text-anchor:start;fill:#ffffff;fill-opacity:1;stroke:none;display:inline;font-family:Ubuntu;-inkscape-font-specification:Ubuntu Medium"
       d="m 246.12516,203.3342 -0.37618,0.7994 c -3.44514,7.29888 -6.72093,14.79449 -9.96889,22.28892 -3.24716,7.49441 -6.6247,15.56144 -9.96888,23.84066 -0.93212,2.37762 -1.88024,4.85474 -2.82138,7.28858 l 21.20739,0 c 1.71891,-4.53711 3.41054,-8.93958 4.98444,-13.0724 2.42507,-6.15621 4.58117,-11.14133 6.5362,-15.75271 1.87096,4.45643 3.76474,9.21542 6.16001,15.37653 1.64261,4.22467 3.31675,8.78231 5.03148,13.44858 l 21.67761,0 c -0.99262,-2.43671 -2.00246,-4.91184 -2.96244,-7.28858 -3.24769,-8.28411 -6.29642,-16.34117 -9.54568,-23.84066 -3.24807,-7.49439 -6.57088,-14.99129 -10.01591,-22.28892 l -0.37619,-0.7994 -19.56158,0 z m -35.26727,58.77879 c -6.669,0 -12.03789,5.3689 -12.03789,12.0379 0,6.66899 5.36889,12.0379 12.03789,12.0379 l 90.28422,0 c 6.669,0 12.03789,-5.36891 12.03789,-12.0379 0,-6.669 -5.36889,-12.0379 -12.03789,-12.0379 l -90.28422,0 z m 0,6.01895 52.66579,0 c 3.33453,0 6.01895,2.68442 6.01895,6.01895 0,3.33454 -2.68442,6.01895 -6.01895,6.01895 l -52.66579,0 c -3.33453,0 -6.01895,-2.68441 -6.01895,-6.01895 0,-3.33453 2.68442,-6.01895 6.01895,-6.01895 z m -0.18809,22.61809 c -1.80313,5.12633 -3.65558,10.45445 -5.59574,15.98782 l -0.75238,1.92795 22.2419,0 4.60825,-12.69622 c 0.63131,-1.72923 1.27783,-3.47038 1.88094,-5.21955 l -22.19488,0 c -0.063,0 -0.12535,7.4e-4 -0.18809,0 z m 67.384,0 c 0.596,1.77201 1.19714,3.51825 1.8339,5.21955 1.46811,3.92263 2.86148,7.92307 4.23208,11.94385 l 0.32916,0.75237 1.17558,0 22.28891,0 -0.7994,-1.92795 c -1.94339,-5.54224 -3.86063,-10.86844 -5.73681,-15.98782 -0.0784,7.4e-4 -0.15646,0 -0.23511,0 l -23.08831,0 z"
       id="path2996"
       inkscape:connector-curvature="0" />
  </g>
</svg>
